<?xml version="1.0" encoding="utf-8"?>
<!-- Generator: Adobe Illustrator 18.1.1, SVG Export Plug-In . SVG Version: 6.00 Build 0)  -->
<svg version="1.1" id="Modalità_Isolamento" xmlns="http://www.w3.org/2000/svg" xmlns:xlink="http://www.w3.org/1999/xlink"
	 x="0px" y="0px" width="13.1px" height="8.4px" viewBox="0 0 13.1 8.4" style="enable-background:new 0 0 13.1 8.4;"
	 xml:space="preserve">
<style type="text/css">
	.st0{fill:#FFFFFF;}
</style>
<g>
	<path class="st0" d="M13.1,2.4c0,0.1,0,5.4,0,5.4c0,0.3-0.4,0.7-0.7,0.7H0.7C0.4,8.4,0,8,0,7.7c0,0,0-5.2,0-5.4
		c0-0.1,0-0.3,0.3-0.1C0.7,2.4,5.6,5,5.9,5.2c0.3,0.1,0.4,0.1,0.7,0.1c0.2,0,0.4,0,0.7-0.1c0.2-0.1,5.2-2.7,5.6-2.9
		C13.1,2.1,13.1,2.3,13.1,2.4z M0.4,0h12.3c0.6,0,0.3,0.6-0.1,0.8C12.3,1,7.4,3.6,7.2,3.7C7,3.8,6.8,3.8,6.5,3.8
		c-0.2,0-0.5,0-0.7-0.1C5.7,3.6,0.8,1,0.4,0.8C0.1,0.6-0.3,0,0.4,0z"/>
</g>
</svg>
