<?xml version="1.0" encoding="utf-8"?>
<!-- Generator: Adobe Illustrator 18.1.1, SVG Export Plug-In . SVG Version: 6.00 Build 0)  -->
<svg version="1.1" id="Livello_1" xmlns="http://www.w3.org/2000/svg" xmlns:xlink="http://www.w3.org/1999/xlink" x="0px" y="0px"
	 width="253.8px" height="81.8px" viewBox="0 0 253.8 81.8" style="enable-background:new 0 0 253.8 81.8;" xml:space="preserve">
<style type="text/css">
	.st0{fill-rule:evenodd;clip-rule:evenodd;fill:#B6B6B6;}
</style>
<path class="st0" d="M81.8,81.8H0V0h81.8V81.8z M57.7,40.3H44.4v5.4h6.7v9.4c-0.9,0.4-2.7,0.8-5.2,0.8c-7.8,0-13.1-5.1-13.1-13.7
	c0-8.8,5.7-13.6,13.7-13.6c4,0,6.5,0.7,8.6,1.6l1.5-5.5c-1.7-0.8-5.4-1.8-10-1.8c-12.5,0-21,7.7-21,19.6c-0.1,5.7,1.9,10.7,5.3,13.9
	c3.6,3.4,8.4,5,14.8,5c5,0,9.8-1.2,12.2-2.1V40.3z"/>
<path class="st0" d="M167.8,81.8H86V0h81.8V81.8z M113.5,61.1c1.7,0.2,4.7,0.5,8.5,0.5c6.9,0,11.3-1.2,14-3.5
	c2.2-1.8,3.6-4.4,3.6-7.8c0-5.2-3.6-8.3-7.6-9.4v-0.1c4.1-1.5,6.3-4.7,6.3-8.2c0-3.2-1.6-5.7-3.9-7.1c-2.6-1.8-5.7-2.4-10.8-2.4
	c-3.9,0-7.8,0.3-10,0.8V61.1z M120.3,28.5c0.7-0.2,1.9-0.3,3.9-0.3c4.4,0,7.1,1.6,7.1,5.2c0,3.2-2.7,5.4-7.5,5.4h-3.5V28.5z
	 M120.3,43.9h3.4c4.8,0,8.6,1.8,8.6,6.2c0,4.7-3.9,6.3-8.3,6.3c-1.6,0-2.7-0.1-3.6-0.2V43.9z"/>
<path class="st0" d="M172,0v81.8h81.8V0H172z M223.2,50.6c-1-3.6-2.6-6.3-5.3-7.3v-0.2c3.5-1.3,6.8-4.6,6.8-9.5
	c0-3.2-1.2-5.8-3.2-7.6c-2.5-2.1-6.2-3-11.7-3c-4,0-7.8,0.3-10.4,0.8v37.3h6.8V45.6h3.5c3.9,0.1,5.7,1.7,6.8,6.6
	c1.1,4.7,2,7.8,2.5,8.9h7.1C225.4,59.7,224.4,55.3,223.2,50.6z M210.4,40.6h-4.1V28.7c0.7-0.2,2.1-0.3,4.3-0.3
	c4.5,0,7.4,1.9,7.4,6.1C218,38.1,215.1,40.6,210.4,40.6z"/>
</svg>
