<?xml version="1.0" encoding="utf-8"?>
<!-- Generator: Adobe Illustrator 18.1.1, SVG Export Plug-In . SVG Version: 6.00 Build 0)  -->
<svg version="1.1" id="Modalità_Isolamento" xmlns="http://www.w3.org/2000/svg" xmlns:xlink="http://www.w3.org/1999/xlink"
	 x="0px" y="0px" width="337px" height="87.9px" viewBox="-72 308.3 337 87.9" style="enable-background:new -72 308.3 337 87.9;"
	 xml:space="preserve">
<style type="text/css">
	.st0{fill:#B6B6B6;}
</style>
<rect x="-72" y="333.3" class="st0" width="23" height="60.4"/>
<path class="st0" d="M-0.5,331.8c-9.2,0-15.4,3.1-19.7,9.2h-0.2v-7.7h-22.2v60.4h23v-31.9c0-9.7,5.2-11.6,9.2-11.6
	c6.7,0,7.6,4.9,7.6,11.9v31.6h23v-41.4C20.2,338.4,10.3,331.8-0.5,331.8"/>
<path class="st0" d="M69.8,339.8c-12.2-0.1-24,1.7-26-3.9c-1.2-4.5,4.1-6.9,7.4-7.8c2.5-0.7,5.4-0.9,7.8,0.1
	c2.4,0.8,4.3,2.5,4.6,5.6l23.4-6.3c-5.8-19.3-23-21.8-40.4-17.2c-16.5,4.4-30.2,16.6-25.2,35.2c4.3,16.2,19.8,15.8,33.4,16
	c14.9,0.2,18.7,0.4,19.8,4.6c1.6,6-4.2,9-8.3,10c-4.6,1.2-10.3,1.7-13.4-2.7c-1-1.3-1.8-3-2.3-5L25.9,375
	c7.1,25.6,33.9,21.9,43,19.4c17.9-4.8,35.3-16.7,29.7-37.6C94.6,342.1,82,339.9,69.8,339.8"/>
<path class="st0" d="M133,331.8c-22.7,0-32.9,14.9-32.9,31.6c0,16.7,10.2,31.8,32.9,31.8s32.9-15,32.9-31.8
	C165.9,346.7,155.7,331.8,133,331.8 M133,378.4c-8.7,0-9.9-8.6-9.9-15c0-6.4,1.2-14.9,9.9-14.9s9.9,8.5,9.9,14.9
	C142.9,369.8,141.8,378.4,133,378.4"/>
<path class="st0" d="M178.3,316.3c-4.4,4.4-5,11-4.8,17h-9.4v12.5h9.4v47.8h23v-47.7h12.7v-12.6H196c-0.4-5.6,1.5-7.2,7.1-7.2
	c1.9,0,3.7,0.6,5.6,0.8v-15.8c-3.5-0.1-6.9-0.5-10.4-0.5C189.1,310.6,183.3,311.3,178.3,316.3"/>
<path class="st0" d="M262.2,380.2V357c0-11.6,0.2-23.6-28.6-23.6c-0.7,0-1.4,0-2.1,0v12c0.3,0,0.7,0,1.1,0c3.7,0,7.6,1.5,7.6,5.6
	c0,3.8-3.1,4.8-6.3,5.3c-11.7,2.2-34.1,1.5-34.1,20.6c0,12.7,9.7,18.3,21.3,18.3c7.4,0,14.5-1.6,19.4-7.2h0.2
	c-0.1,1.6,0.2,4.1,0.8,5.7H265C262.5,389.8,262.2,384.7,262.2,380.2 M240.1,372.2c-0.4,6.3-4.4,9.4-9.7,9.4c-4.2,0-7.2-2.8-7.2-5.6
	c0-4.1,2.7-5.4,7.8-6.5c3.1-0.7,6.3-1.5,9.1-2.9L240.1,372.2L240.1,372.2z"/>
</svg>
