<?xml version="1.0" encoding="utf-8"?>
<!-- Generator: Adobe Illustrator 18.1.1, SVG Export Plug-In . SVG Version: 6.00 Build 0)  -->
<svg version="1.1" id="Modalità_Isolamento" xmlns="http://www.w3.org/2000/svg" xmlns:xlink="http://www.w3.org/1999/xlink"
	 x="0px" y="0px" width="337px" height="120.7px" viewBox="0 0 337 120.7" style="enable-background:new 0 0 337 120.7;"
	 xml:space="preserve">
<style type="text/css">
	.st0{fill:#4F4847;}
</style>
<rect x="0" y="25" class="st0" width="23" height="60.4"/>
<path class="st0" d="M71.5,23.5c-9.2,0-15.4,3.1-19.7,9.2h-0.2V25H29.4v60.4h23V53.5c0-9.7,5.2-11.6,9.2-11.6
	c6.7,0,7.6,4.9,7.6,11.9v31.6h23V44C92.2,30.1,82.3,23.5,71.5,23.5"/>
<path class="st0" d="M141.8,31.5c-12.2-0.1-24,1.7-26-3.9c-1.2-4.5,4.1-6.9,7.4-7.8c2.5-0.7,5.4-0.9,7.8,0.1
	c2.4,0.8,4.3,2.5,4.6,5.6l23.4-6.3C153.2-0.1,136-2.6,118.6,2c-16.5,4.4-30.2,16.6-25.2,35.2c4.3,16.2,19.8,15.8,33.4,16
	c14.9,0.2,18.7,0.4,19.8,4.6c1.6,6-4.2,9-8.3,10c-4.6,1.2-10.3,1.7-13.4-2.7c-1-1.3-1.8-3-2.3-5l-24.7,6.6
	c7.1,25.6,33.9,21.9,43,19.4c17.9-4.8,35.3-16.7,29.7-37.6C166.6,33.8,154,31.6,141.8,31.5"/>
<path class="st0" d="M205,23.5c-22.7,0-32.9,14.9-32.9,31.6c0,16.7,10.2,31.8,32.9,31.8c22.7,0,32.9-15,32.9-31.8
	C237.9,38.4,227.7,23.5,205,23.5 M205,70.1c-8.7,0-9.9-8.6-9.9-15c0-6.4,1.2-14.9,9.9-14.9c8.7,0,9.9,8.5,9.9,14.9
	C214.9,61.5,213.8,70.1,205,70.1"/>
<path class="st0" d="M250.3,8c-4.4,4.4-5,11-4.8,17h-9.4v12.5h9.4v47.8h23V37.6h12.7V25h-13.2c-0.4-5.6,1.5-7.2,7.1-7.2
	c1.9,0,3.7,0.6,5.6,0.8V2.8c-3.5-0.1-6.9-0.5-10.4-0.5C261.1,2.3,255.3,3,250.3,8"/>
<path class="st0" d="M334.2,71.9V48.7c0-11.6,0.2-23.6-28.6-23.6c-0.7,0-1.4,0-2.1,0v12c0.3,0,0.7,0,1.1,0c3.7,0,7.6,1.5,7.6,5.6
	c0,3.8-3.1,4.8-6.3,5.3c-11.7,2.2-34.1,1.5-34.1,20.6c0,12.7,9.7,18.3,21.3,18.3c7.4,0,14.5-1.6,19.4-7.2h0.2
	c-0.1,1.6,0.2,4.1,0.8,5.7H337C334.5,81.5,334.2,76.4,334.2,71.9 M312.1,63.9c-0.4,6.3-4.4,9.4-9.7,9.4c-4.2,0-7.2-2.8-7.2-5.6
	c0-4.1,2.7-5.4,7.8-6.5c3.1-0.7,6.3-1.5,9.1-2.9V63.9z"/>
<path class="st0" d="M0,118v-17.4c0-0.9,0.2-1.6,0.6-2c0.4-0.5,1-0.7,1.6-0.7c0.7,0,1.2,0.2,1.7,0.7c0.4,0.4,0.6,1.1,0.6,2V118
	c0,0.9-0.2,1.6-0.6,2.1c-0.4,0.5-1,0.7-1.7,0.7c-0.7,0-1.2-0.2-1.6-0.7C0.2,119.6,0,118.9,0,118"/>
<path class="st0" d="M12.4,98.2h5.9c1.5,0,2.9,0.1,4,0.4c1.1,0.3,2.1,0.8,3,1.6c2.3,2,3.5,5,3.5,9c0,1.3-0.1,2.5-0.4,3.6
	s-0.6,2.1-1.1,3c-0.5,0.9-1.1,1.7-1.9,2.4c-0.6,0.5-1.3,1-2,1.3c-0.7,0.3-1.5,0.5-2.3,0.7c-0.8,0.1-1.7,0.2-2.8,0.2h-5.9
	c-0.8,0-1.4-0.1-1.9-0.4c-0.4-0.2-0.7-0.6-0.8-1c-0.1-0.4-0.2-1-0.2-1.7V101c0-1,0.2-1.7,0.7-2.1C10.7,98.4,11.4,98.2,12.4,98.2
	 M14.2,101.8v15h3.4c0.8,0,1.3,0,1.8-0.1c0.4,0,0.9-0.1,1.3-0.3c0.5-0.2,0.9-0.4,1.2-0.7c1.5-1.3,2.3-3.5,2.3-6.6
	c0-2.2-0.3-3.8-1-4.9c-0.7-1.1-1.5-1.8-2.5-2.1c-1-0.3-2.2-0.4-3.5-0.4H14.2z"/>
<path class="st0" d="M47.5,101.7H37.3v5.4h9.4c0.7,0,1.2,0.2,1.5,0.5c0.3,0.3,0.5,0.7,0.5,1.2c0,0.5-0.2,0.9-0.5,1.2
	c-0.3,0.3-0.9,0.5-1.6,0.5h-9.4v6.3h10.6c0.7,0,1.2,0.2,1.6,0.5c0.4,0.3,0.5,0.8,0.5,1.3c0,0.5-0.2,0.9-0.5,1.3s-0.9,0.5-1.6,0.5
	H35.5c-1,0-1.7-0.2-2.1-0.6c-0.4-0.4-0.7-1.1-0.7-2.1V101c0-0.6,0.1-1.2,0.3-1.6c0.2-0.4,0.5-0.7,0.9-0.9c0.4-0.2,0.9-0.3,1.6-0.3
	h12c0.7,0,1.3,0.2,1.6,0.5c0.4,0.3,0.5,0.7,0.5,1.2c0,0.5-0.2,0.9-0.5,1.3C48.8,101.5,48.2,101.7,47.5,101.7"/>
<path class="st0" d="M67.9,117.9l-1.1-2.8h-9.1l-1.1,2.8c-0.4,1.1-0.8,1.9-1.1,2.2c-0.3,0.4-0.8,0.6-1.4,0.6c-0.6,0-1.1-0.2-1.5-0.6
	c-0.4-0.4-0.7-0.9-0.7-1.4c0-0.3,0.1-0.6,0.2-0.9c0.1-0.3,0.3-0.8,0.5-1.3l5.7-14.4c0.2-0.4,0.4-0.9,0.6-1.5
	c0.2-0.6,0.5-1.1,0.7-1.4c0.3-0.4,0.6-0.7,1-0.9c0.4-0.2,0.9-0.4,1.6-0.4c0.6,0,1.2,0.1,1.6,0.4c0.4,0.2,0.8,0.5,1,0.9
	c0.3,0.4,0.5,0.8,0.7,1.2c0.2,0.4,0.4,1,0.7,1.7l5.9,14.3c0.5,1.1,0.7,1.9,0.7,2.4c0,0.5-0.2,1-0.6,1.4c-0.4,0.4-1,0.6-1.6,0.6
	c-0.4,0-0.7-0.1-0.9-0.2c-0.3-0.1-0.5-0.3-0.6-0.5c-0.2-0.2-0.4-0.6-0.6-1C68.3,118.6,68.1,118.2,67.9,117.9 M59,111.7h6.7l-3.4-9.1
	L59,111.7z"/>
<path class="st0" d="M93.1,113.7c0,1.3-0.3,2.5-1,3.6c-0.7,1.1-1.7,1.9-3.1,2.5c-1.3,0.6-2.9,0.9-4.8,0.9c-2.2,0-4-0.4-5.5-1.2
	c-1-0.6-1.8-1.4-2.5-2.4c-0.6-1-1-2-1-2.9c0-0.5,0.2-1,0.6-1.4c0.4-0.4,0.9-0.6,1.5-0.6c0.5,0,0.9,0.2,1.2,0.5
	c0.3,0.3,0.6,0.8,0.8,1.3c0.3,0.7,0.6,1.3,0.9,1.8c0.3,0.5,0.8,0.9,1.4,1.2c0.6,0.3,1.4,0.5,2.4,0.5c1.3,0,2.4-0.3,3.3-0.9
	c0.8-0.6,1.3-1.4,1.3-2.3c0-0.7-0.2-1.3-0.7-1.8c-0.5-0.5-1-0.8-1.8-1c-0.7-0.2-1.7-0.5-2.9-0.8c-1.6-0.4-3-0.8-4-1.3
	c-1.1-0.5-1.9-1.2-2.6-2c-0.6-0.9-1-1.9-1-3.2c0-1.2,0.3-2.3,1-3.2c0.7-0.9,1.6-1.7,2.9-2.2c1.3-0.5,2.8-0.8,4.5-0.8
	c1.4,0,2.6,0.2,3.6,0.5c1,0.3,1.8,0.8,2.5,1.3c0.7,0.6,1.1,1.1,1.5,1.8c0.3,0.6,0.5,1.2,0.5,1.8c0,0.5-0.2,1-0.6,1.4
	c-0.4,0.4-0.9,0.6-1.4,0.6c-0.5,0-0.9-0.1-1.2-0.4c-0.3-0.3-0.6-0.7-0.9-1.3c-0.4-0.8-0.9-1.5-1.5-2c-0.6-0.5-1.5-0.7-2.7-0.7
	c-1.2,0-2.1,0.3-2.8,0.8c-0.7,0.5-1.1,1.1-1.1,1.8c0,0.4,0.1,0.8,0.4,1.1c0.2,0.3,0.6,0.6,1,0.8c0.4,0.2,0.9,0.4,1.3,0.5
	c0.4,0.1,1.2,0.3,2.2,0.6c1.3,0.3,2.4,0.6,3.4,1c1,0.4,1.9,0.8,2.6,1.3c0.7,0.5,1.3,1.1,1.7,1.9C92.9,111.7,93.1,112.6,93.1,113.7"
	/>
<path class="st0" d="M118.2,101.7h-8.9v5.7h7.5c0.7,0,1.2,0.2,1.5,0.5c0.3,0.3,0.5,0.7,0.5,1.2c0,0.5-0.2,0.9-0.5,1.2
	c-0.3,0.3-0.9,0.5-1.5,0.5h-7.5v7.3c0,0.9-0.2,1.6-0.6,2.1c-0.4,0.4-1,0.7-1.6,0.7c-0.7,0-1.2-0.2-1.6-0.7c-0.4-0.5-0.6-1.1-0.6-2.1
	v-17c0-0.6,0.1-1.2,0.3-1.6c0.2-0.4,0.5-0.7,0.9-0.9c0.4-0.2,0.9-0.3,1.6-0.3h10.7c0.7,0,1.3,0.2,1.6,0.5c0.4,0.3,0.5,0.7,0.5,1.2
	c0,0.5-0.2,0.9-0.5,1.3C119.4,101.5,118.9,101.7,118.2,101.7"/>
<path class="st0" d="M133.5,97.8c2.3,0,4.3,0.5,6,1.4c1.7,0.9,2.9,2.3,3.8,4c0.9,1.7,1.3,3.7,1.3,6c0,1.7-0.2,3.3-0.7,4.7
	c-0.5,1.4-1.2,2.6-2.1,3.6c-0.9,1-2.1,1.8-3.5,2.4c-1.4,0.5-2.9,0.8-4.7,0.8c-1.8,0-3.3-0.3-4.7-0.8c-1.4-0.6-2.5-1.3-3.5-2.4
	c-0.9-1-1.6-2.2-2.1-3.7c-0.5-1.4-0.7-3-0.7-4.6c0-1.7,0.2-3.3,0.7-4.7c0.5-1.4,1.2-2.6,2.1-3.6c0.9-1,2.1-1.8,3.4-2.3
	C130.3,98.1,131.8,97.8,133.5,97.8 M140,109.2c0-1.6-0.3-3-0.8-4.2c-0.5-1.2-1.3-2.1-2.3-2.7c-1-0.6-2.1-0.9-3.4-0.9
	c-0.9,0-1.7,0.2-2.5,0.5c-0.8,0.3-1.4,0.8-2,1.5c-0.6,0.6-1,1.5-1.3,2.5c-0.3,1-0.5,2.1-0.5,3.4c0,1.3,0.2,2.4,0.5,3.4
	c0.3,1,0.8,1.9,1.4,2.5c0.6,0.7,1.3,1.2,2,1.5c0.8,0.3,1.6,0.5,2.5,0.5c1.2,0,2.2-0.3,3.2-0.9c1-0.6,1.7-1.5,2.3-2.7
	C139.7,112.5,140,111,140,109.2"/>
<path class="st0" d="M154.6,110.9H153v7.1c0,0.9-0.2,1.6-0.6,2.1c-0.4,0.4-1,0.7-1.6,0.7c-0.7,0-1.3-0.2-1.7-0.7
	c-0.4-0.5-0.6-1.1-0.6-2v-17c0-1,0.2-1.7,0.7-2.1c0.4-0.4,1.1-0.6,2.1-0.6h7.4c1,0,1.9,0,2.6,0.1c0.7,0.1,1.4,0.3,2,0.5
	c0.7,0.3,1.3,0.7,1.9,1.3c0.5,0.5,0.9,1.2,1.2,1.9c0.3,0.7,0.4,1.5,0.4,2.3c0,1.6-0.5,3-1.4,4c-0.9,1-2.4,1.7-4.3,2.1
	c0.8,0.4,1.6,1,2.3,1.9c0.7,0.8,1.4,1.7,2,2.6c0.6,0.9,1,1.8,1.3,2.5c0.3,0.7,0.5,1.3,0.5,1.5c0,0.3-0.1,0.6-0.3,0.9
	c-0.2,0.3-0.4,0.5-0.8,0.7c-0.3,0.2-0.7,0.2-1.1,0.2c-0.5,0-0.9-0.1-1.3-0.4c-0.3-0.2-0.6-0.5-0.9-0.9c-0.2-0.4-0.6-0.9-1-1.6
	l-1.8-3c-0.7-1.1-1.2-1.9-1.7-2.5c-0.5-0.6-1-1-1.6-1.2C156,111,155.4,110.9,154.6,110.9 M157.1,101.6H153v6.1h4.1
	c1.1,0,2-0.1,2.7-0.3c0.7-0.2,1.3-0.5,1.7-1c0.4-0.4,0.6-1.1,0.6-1.8c0-0.6-0.2-1.2-0.5-1.6c-0.3-0.5-0.8-0.8-1.3-1
	C159.7,101.7,158.7,101.6,157.1,101.6"/>
<path class="st0" d="M197.8,113.4c0,0.7-0.2,1.5-0.5,2.3c-0.4,0.8-0.9,1.6-1.7,2.4c-0.8,0.8-1.7,1.4-2.9,1.9
	c-1.2,0.5-2.5,0.7-4.1,0.7c-1.2,0-2.3-0.1-3.2-0.3c-1-0.2-1.8-0.6-2.6-1c-0.8-0.5-1.5-1.1-2.2-1.9c-0.6-0.7-1.1-1.5-1.5-2.3
	c-0.4-0.9-0.7-1.8-0.9-2.8c-0.2-1-0.3-2-0.3-3.1c0-1.8,0.3-3.4,0.8-4.8c0.5-1.4,1.3-2.6,2.2-3.6c1-1,2.1-1.8,3.4-2.3
	c1.3-0.5,2.7-0.8,4.2-0.8c1.8,0,3.4,0.4,4.8,1.1c1.4,0.7,2.5,1.6,3.3,2.6c0.8,1.1,1.1,2,1.1,3c0,0.5-0.2,1-0.6,1.4
	c-0.4,0.4-0.8,0.6-1.3,0.6c-0.6,0-1-0.1-1.3-0.4c-0.3-0.3-0.6-0.7-1-1.4c-0.6-1.1-1.3-1.9-2.1-2.5c-0.8-0.5-1.8-0.8-3-0.8
	c-1.9,0-3.3,0.7-4.5,2.1c-1.1,1.4-1.7,3.4-1.7,6c0,1.7,0.2,3.2,0.7,4.3c0.5,1.1,1.2,2,2.1,2.6c0.9,0.6,1.9,0.8,3.1,0.8
	c1.3,0,2.4-0.3,3.3-1c0.9-0.6,1.6-1.6,2-2.8c0.2-0.6,0.4-1.1,0.7-1.4c0.3-0.4,0.7-0.6,1.4-0.6c0.5,0,1,0.2,1.4,0.6
	C197.7,112.3,197.8,112.8,197.8,113.4"/>
<path class="st0" d="M211.8,97.8c2.3,0,4.3,0.5,6,1.4c1.7,0.9,2.9,2.3,3.8,4c0.9,1.7,1.3,3.7,1.3,6c0,1.7-0.2,3.3-0.7,4.7
	c-0.5,1.4-1.2,2.6-2.1,3.6c-0.9,1-2.1,1.8-3.5,2.4c-1.4,0.5-2.9,0.8-4.7,0.8c-1.8,0-3.3-0.3-4.7-0.8c-1.4-0.6-2.5-1.3-3.5-2.4
	c-0.9-1-1.6-2.2-2.1-3.7c-0.5-1.4-0.7-3-0.7-4.6c0-1.7,0.2-3.3,0.7-4.7c0.5-1.4,1.2-2.6,2.1-3.6c0.9-1,2.1-1.8,3.4-2.3
	C208.5,98.1,210.1,97.8,211.8,97.8 M218.2,109.2c0-1.6-0.3-3-0.8-4.2c-0.5-1.2-1.3-2.1-2.3-2.7c-1-0.6-2.1-0.9-3.4-0.9
	c-0.9,0-1.7,0.2-2.5,0.5c-0.8,0.3-1.4,0.8-2,1.5c-0.6,0.6-1,1.5-1.3,2.5c-0.3,1-0.5,2.1-0.5,3.4c0,1.3,0.2,2.4,0.5,3.4
	c0.3,1,0.8,1.9,1.4,2.5c0.6,0.7,1.3,1.2,2,1.5c0.8,0.3,1.6,0.5,2.5,0.5c1.2,0,2.2-0.3,3.2-0.9c1-0.6,1.7-1.5,2.3-2.7
	C217.9,112.5,218.2,111,218.2,109.2"/>
<path class="st0" d="M234.3,117l-3.6-14.1v15.3c0,0.8-0.2,1.5-0.6,1.9c-0.4,0.4-0.9,0.6-1.5,0.6c-0.6,0-1.1-0.2-1.5-0.6
	c-0.4-0.4-0.6-1.1-0.6-1.9v-17.5c0-1,0.3-1.6,0.8-2c0.5-0.3,1.2-0.5,2.1-0.5h1.4c0.8,0,1.5,0.1,1.8,0.2c0.4,0.2,0.7,0.4,0.8,0.8
	c0.2,0.4,0.4,1,0.6,1.9l3.3,12.1l3.3-12.1c0.2-0.9,0.4-1.5,0.6-1.9c0.2-0.4,0.5-0.7,0.8-0.8c0.4-0.2,1-0.2,1.8-0.2h1.4
	c0.9,0,1.6,0.2,2.1,0.5c0.5,0.3,0.8,1,0.8,2v17.5c0,0.8-0.2,1.5-0.6,1.9c-0.4,0.4-0.9,0.6-1.5,0.6c-0.6,0-1.1-0.2-1.5-0.6
	c-0.4-0.4-0.6-1.1-0.6-1.9v-15.3l-3.6,14.1c-0.2,0.9-0.4,1.6-0.6,2c-0.1,0.4-0.4,0.8-0.8,1.2c-0.4,0.4-0.9,0.5-1.6,0.5
	c-0.5,0-1-0.1-1.3-0.3c-0.4-0.2-0.7-0.5-0.9-0.9c-0.2-0.4-0.4-0.7-0.5-1.2C234.5,117.9,234.4,117.5,234.3,117"/>
<path class="st0" d="M266.1,101.7h-8.9v5.7h7.5c0.7,0,1.2,0.2,1.5,0.5c0.3,0.3,0.5,0.7,0.5,1.2c0,0.5-0.2,0.9-0.5,1.2
	c-0.3,0.3-0.9,0.5-1.5,0.5h-7.5v7.3c0,0.9-0.2,1.6-0.6,2.1c-0.4,0.4-1,0.7-1.6,0.7c-0.7,0-1.2-0.2-1.6-0.7c-0.4-0.5-0.6-1.1-0.6-2.1
	v-17c0-0.6,0.1-1.2,0.3-1.6c0.2-0.4,0.5-0.7,0.9-0.9c0.4-0.2,0.9-0.3,1.6-0.3h10.7c0.7,0,1.3,0.2,1.6,0.5c0.4,0.3,0.5,0.7,0.5,1.2
	c0,0.5-0.2,0.9-0.5,1.3C267.4,101.5,266.9,101.7,266.1,101.7"/>
<path class="st0" d="M281.5,97.8c2.3,0,4.3,0.5,6,1.4c1.7,0.9,2.9,2.3,3.8,4c0.9,1.7,1.3,3.7,1.3,6c0,1.7-0.2,3.3-0.7,4.7
	c-0.5,1.4-1.2,2.6-2.1,3.6c-0.9,1-2.1,1.8-3.5,2.4c-1.4,0.5-2.9,0.8-4.7,0.8c-1.8,0-3.3-0.3-4.7-0.8c-1.4-0.6-2.5-1.3-3.5-2.4
	c-0.9-1-1.6-2.2-2.1-3.7c-0.5-1.4-0.7-3-0.7-4.6c0-1.7,0.2-3.3,0.7-4.7c0.5-1.4,1.2-2.6,2.1-3.6c0.9-1,2.1-1.8,3.4-2.3
	C278.3,98.1,279.8,97.8,281.5,97.8 M287.9,109.2c0-1.6-0.3-3-0.8-4.2c-0.5-1.2-1.3-2.1-2.3-2.7c-1-0.6-2.1-0.9-3.4-0.9
	c-0.9,0-1.7,0.2-2.5,0.5c-0.8,0.3-1.4,0.8-2,1.5c-0.6,0.6-1,1.5-1.3,2.5c-0.3,1-0.5,2.1-0.5,3.4c0,1.3,0.2,2.4,0.5,3.4
	c0.3,1,0.8,1.9,1.4,2.5c0.6,0.7,1.3,1.2,2,1.5c0.8,0.3,1.6,0.5,2.5,0.5c1.2,0,2.2-0.3,3.2-0.9c1-0.6,1.7-1.5,2.3-2.7
	C287.6,112.5,287.9,111,287.9,109.2"/>
<path class="st0" d="M302.5,110.9h-1.6v7.1c0,0.9-0.2,1.6-0.6,2.1c-0.4,0.4-1,0.7-1.6,0.7c-0.7,0-1.3-0.2-1.7-0.7
	c-0.4-0.5-0.6-1.1-0.6-2v-17c0-1,0.2-1.7,0.7-2.1c0.4-0.4,1.1-0.6,2.1-0.6h7.4c1,0,1.9,0,2.6,0.1c0.7,0.1,1.4,0.3,2,0.5
	c0.7,0.3,1.3,0.7,1.9,1.3c0.5,0.5,0.9,1.2,1.2,1.9c0.3,0.7,0.4,1.5,0.4,2.3c0,1.6-0.5,3-1.4,4c-0.9,1-2.4,1.7-4.3,2.1
	c0.8,0.4,1.6,1,2.3,1.9c0.7,0.8,1.4,1.7,2,2.6c0.6,0.9,1,1.8,1.3,2.5c0.3,0.7,0.5,1.3,0.5,1.5c0,0.3-0.1,0.6-0.3,0.9
	c-0.2,0.3-0.4,0.5-0.8,0.7c-0.3,0.2-0.7,0.2-1.1,0.2c-0.5,0-0.9-0.1-1.3-0.4c-0.3-0.2-0.6-0.5-0.9-0.9c-0.2-0.4-0.6-0.9-1-1.6
	l-1.8-3c-0.7-1.1-1.2-1.9-1.7-2.5c-0.5-0.6-1-1-1.6-1.2C304,111,303.3,110.9,302.5,110.9 M305.1,101.6h-4.2v6.1h4.1
	c1.1,0,2-0.1,2.7-0.3c0.7-0.2,1.3-0.5,1.7-1c0.4-0.4,0.6-1.1,0.6-1.8c0-0.6-0.2-1.2-0.5-1.6c-0.3-0.5-0.8-0.8-1.3-1
	C307.7,101.7,306.7,101.6,305.1,101.6"/>
<path class="st0" d="M331.9,101.9h-4.9V118c0,0.9-0.2,1.6-0.6,2.1c-0.4,0.4-1,0.7-1.6,0.7c-0.7,0-1.2-0.2-1.6-0.7s-0.6-1.1-0.6-2.1
	v-16.1h-4.9c-0.8,0-1.3-0.2-1.7-0.5c-0.4-0.3-0.6-0.8-0.6-1.3c0-0.6,0.2-1,0.6-1.4c0.4-0.3,1-0.5,1.7-0.5h14.4
	c0.8,0,1.4,0.2,1.7,0.5c0.4,0.3,0.6,0.8,0.6,1.3c0,0.6-0.2,1-0.6,1.3C333.2,101.8,332.7,101.9,331.9,101.9"/>
</svg>
