<?xml version="1.0" encoding="utf-8"?>
<!-- Generator: Adobe Illustrator 18.1.1, SVG Export Plug-In . SVG Version: 6.00 Build 0)  -->
<svg version="1.1" id="Modalità_Isolamento" xmlns="http://www.w3.org/2000/svg" xmlns:xlink="http://www.w3.org/1999/xlink"
	 x="0px" y="0px" width="17.7px" height="17.8px" viewBox="0 0 17.7 17.8" style="enable-background:new 0 0 17.7 17.8;"
	 xml:space="preserve">
<style type="text/css">
	.st0{fill:#FFFFFF;}
</style>
<g>
	<path class="st0" d="M17.5,16.4l-1,1c-0.5,0.4-1.1,0.4-1.5,0l-4.3-4.3c-1,0.6-2.2,0.9-3.5,0.9C3.3,14.1,0,10.8,0,7
		c0-3.9,3.1-7,6.9-7c3.9,0,7.2,3.3,7.2,7.2c0,1.4-0.4,2.6-1,3.6l4.3,4.2C17.8,15.5,17.9,16,17.5,16.4z M7.2,12C9.8,12,12,9.9,12,7.2
		c0-2.7-2.4-5-5-5S2.1,4.3,2.1,7S4.5,12,7.2,12z"/>
</g>
</svg>
