<?xml version="1.0" encoding="utf-8"?>
<!-- Generator: Adobe Illustrator 18.1.1, SVG Export Plug-In . SVG Version: 6.00 Build 0)  -->
<svg version="1.1" id="Icons" xmlns="http://www.w3.org/2000/svg" xmlns:xlink="http://www.w3.org/1999/xlink" x="0px" y="0px"
	 width="88.9px" height="86px" viewBox="0 0 88.9 86" style="enable-background:new 0 0 88.9 86;" xml:space="preserve">
<style type="text/css">
	.st0{fill:#B6B6B6;}
</style>
<path id="LinkedIn_3_" class="st0" d="M88.9,52.7V86H69.6V55c0-7.8-2.8-13.1-9.8-13.1c-5.3,0-8.5,3.6-9.9,7.1
	c-0.5,1.2-0.6,3-0.6,4.7V86H30c0,0,0.3-52.6,0-58h19.3v8.2c0,0.1-0.1,0.1-0.1,0.2h0.1v-0.2c2.6-3.9,7.1-9.6,17.4-9.6
	C79.3,26.6,88.9,34.9,88.9,52.7z M9.8,0C3.2,0-1.1,4.3-1.1,10c0,5.6,4.2,10,10.7,10h0.1c6.7,0,10.9-4.5,10.9-10
	C20.4,4.3,16.4,0,9.8,0z M0,86h19.3V28H0V86z"/>
</svg>
