<?xml version="1.0" encoding="utf-8"?>
<!-- Generator: Adobe Illustrator 18.1.1, SVG Export Plug-In . SVG Version: 6.00 Build 0)  -->
<svg version="1.1" id="Modalità_Isolamento" xmlns="http://www.w3.org/2000/svg" xmlns:xlink="http://www.w3.org/1999/xlink"
	 x="0px" y="0px" width="15px" height="24.2px" viewBox="0 0 15 24.2" style="enable-background:new 0 0 15 24.2;"
	 xml:space="preserve">
<style type="text/css">
	.st0{fill:#FFFFFF;}
</style>
<path class="st0" d="M5.6,6.6c0.3-0.3,0.5-0.5,0.5-0.5C6.1,5.6,4.9,0.3,4.9,0.3L3.4,0c0,0,0.4,1.9,1.5,6.9C4.9,7.2,4.9,7.4,5.6,6.6
	 M14.8,21.4c0.2-0.8,0.2-0.8,0.2-0.9c-0.1-0.1-3.1-3.3-3.5-3.8c-0.1-0.1-0.2-0.1-0.8,0.3c-0.6,0.4-0.7,0.5-0.6,0.5
	c0.3,0.4,4.5,4.7,4.5,4.7S14.6,21.8,14.8,21.4 M11.9,24c0.8-0.3,1.8-0.8,2.1-1c0.2-0.2,0.2-0.2,0.2-0.3C13.6,22,9.9,18,9.8,18
	c0,0-0.1,0.3-0.2,0.7c-0.1,0.7-0.2,0.8-0.5,0.8c-0.2,0-0.4-0.2-0.7-0.7c-0.1-0.2-0.3-0.5-0.4-0.8c-0.1-0.2-0.3-0.5-0.4-0.9
	c-0.2-0.4-0.4-0.8-0.6-1.3c-0.4-0.8-0.8-1.7-1.1-2.1c-0.1-0.2-0.2-0.5-0.4-0.8S5.2,12.4,5,12.2c-0.1-0.2-0.3-0.7-0.5-1
	C4.3,10.8,4.1,10.4,4,10C3.9,9.8,3.7,9.4,3.6,9.2C3.3,8.7,3,7.8,2.9,7.6c0-0.2,0-0.3,0.2-0.5c0.2-0.2,0.2-0.2,0.8,0
	c0.2,0.1,0.4,0.1,0.4,0.1l-1.5-7c0,0-1.7,1.7-1.7,1.8c0,0-0.2,0.3-0.3,0.5C0.7,2.8,0.4,3.1,0.4,3.4C0.1,3.8,0.1,3.9,0.1,4.7
	c-0.2,2.3,0.3,5.5,1.1,8.1c0.4,1.4,0.8,2.1,1.1,2.7c0.2,0.3,0.4,0.7,0.4,0.9c0.5,1.4,2.2,3.8,3.4,4.9c0.8,0.8,2.6,2.2,3,2.4
	C10.4,24.3,10.8,24.3,11.9,24"/>
</svg>
